Coordinates
version=1
nRows=40
nColumns=38
inDegrees=no

Units are S.I. units (second, meters, Newtons, ...)
If the header above contains a line with 'inDegrees', this indicates whether rotational values are in degrees (yes) or radians (no).

endheader
time	pelvis_tilt	pelvis_list	pelvis_rotation	pelvis_tx	pelvis_ty	pelvis_tz	hip_flexion_r	hip_adduction_r	hip_rotation_r	knee_angle_r	ankle_angle_r	subtalar_angle_r	mtp_angle_r	hip_flexion_l	hip_adduction_l	hip_rotation_l	knee_angle_l	ankle_angle_l	subtalar_angle_l	mtp_angle_l	lumbar_extension	lumbar_bending	lumbar_rotation	arm_flex_r	arm_add_r	arm_rot_r	elbow_flex_r	pro_sup_r	wrist_flex_r	wrist_dev_r	arm_flex_l	arm_add_l	arm_rot_l	elbow_flex_l	pro_sup_l	wrist_flex_l	wrist_dev_l
0	3.06044	1.27959	-1.47622	0.599151	-0.378986	0.967758	-0.417513	0.0459461	-0.184908	0.14085	-0.110385	0	0	0.242713	-0.213549	-0.244882	1.16965	-0.0182563	0	0	-0.468453	-0.0128987	-0.0842146	0.166638	-0.500728	1.13839	0.729828	0.411251	0	0	-0.284756	-0.421439	0.108674	0.959126	1.45597	0	0
0.01	3.06419	1.2691	-1.48442	0.599221	-0.368782	0.967807	-0.441395	0.0445062	-0.195552	0.149343	-0.0979765	0	0	0.233938	-0.222467	-0.289701	1.11875	-0.0344939	0	0	-0.479096	-0.0151863	-0.0841347	0.174239	-0.503957	1.15549	0.73451	0.396718	0	0	-0.295477	-0.417501	0.097285	0.963228	1.45563	0	0
0.02	3.04091	1.23885	-1.46852	0.601524	-0.358635	0.969562	-0.468638	0.034778	-0.388582	0.184338	-0.127578	0	0	0.197365	-0.251244	-0.349092	1.06158	-0.0623619	0	0	-0.51094	-0.011803	-0.0796076	0.188621	-0.506503	1.18328	0.743788	0.37223	0	0	-0.310646	-0.419223	0.0813886	0.977779	1.45197	0	0
0.03	3.06927	1.23174	-1.49772	0.601256	-0.347344	0.968054	-0.47681	0.0197666	-0.412	0.220764	-0.102568	0	0	0.184473	-0.246307	-0.397131	1.00622	-0.0765686	0	0	-0.516519	-0.0220178	-0.0851618	0.190402	-0.51181	1.1943	0.755778	0.360241	0	0	-0.326958	-0.419497	0.0711843	0.9884	1.44866	0	0
0.04	3.11044	1.26633	-1.54868	0.602113	-0.336625	0.962008	-0.429609	-0.027187	-0.403885	0.243837	-0.107758	0	0	0.222089	-0.230352	-0.431943	0.959156	-0.0874783	0	0	-0.478198	-0.0434629	-0.0833134	0.189187	-0.509149	1.20621	0.755167	0.348589	0	0	-0.340599	-0.418981	0.0624227	0.990463	1.44642	0	0
0.05	3.07344	1.23291	-1.50734	0.600891	-0.326434	0.965042	-0.495746	0.0121985	-0.425062	0.233821	-0.0804258	0	0	0.177027	-0.242629	-0.468503	0.887505	-0.111317	0	0	-0.51445	-0.0275099	-0.0854341	0.198021	-0.512176	1.21725	0.756816	0.344129	0	0	-0.341593	-0.413742	0.0576577	0.988271	1.44559	0	0
0.06	3.07341	1.23288	-1.50814	0.600278	-0.316251	0.963212	-0.502644	0.00912957	-0.434604	0.247135	-0.0694273	0	0	0.172308	-0.236696	-0.493624	0.826135	-0.131207	0	0	-0.5161	-0.0281034	-0.0860466	0.200412	-0.516421	1.22251	0.76403	0.338351	0	0	-0.347309	-0.411238	0.0518704	0.99059	1.4465	0	0
0.07	3.07187	1.23899	-1.50565	0.599354	-0.305921	0.960802	-0.501003	0.00594727	-0.446089	0.265847	-0.0555829	0	0	0.175231	-0.227178	-0.506722	0.765504	-0.149729	0	0	-0.510562	-0.0276974	-0.0878722	0.201379	-0.518473	1.22663	0.7669	0.333692	0	0	-0.351522	-0.408227	0.0476953	0.989376	1.44944	0	0
0.08	3.06789	1.24879	-1.49955	0.598183	-0.2955	0.958003	-0.49572	0.00368095	-0.455636	0.284907	-0.0384413	0	0	0.182396	-0.215268	-0.509447	0.706395	-0.164314	0	0	-0.500788	-0.0263157	-0.090717	0.202171	-0.519163	1.23131	0.767195	0.329937	0	0	-0.355045	-0.404718	0.0435575	0.986328	1.45197	0	0
0.09	3.06082	1.25991	-1.48992	0.596864	-0.284987	0.955011	-0.489884	0.00266227	-0.461638	0.3017	-0.0228985	0	0	0.190187	-0.202184	-0.50481	0.649966	-0.169623	0	0	-0.489293	-0.0240288	-0.0937441	0.202547	-0.519483	1.23551	0.766505	0.327402	0	0	-0.358209	-0.400909	0.0395482	0.982477	1.45491	0	0
0.1	3.05236	1.27096	-1.47886	0.595466	-0.274324	0.952006	-0.484236	0.00177974	-0.46577	0.318517	-0.00852965	0	0	0.195748	-0.187926	-0.496062	0.595627	-0.167173	0	0	-0.477395	-0.021541	-0.0970457	0.202456	-0.519981	1.23957	0.765849	0.325874	0	0	-0.361398	-0.396826	0.0352075	0.978238	1.45822	0	0
0.11	3.0447	1.28095	-1.46901	0.594015	-0.263497	0.949118	-0.478925	2.02238e-05	-0.467953	0.336596	0.00456689	0	0	0.197346	-0.17244	-0.486086	0.543152	-0.160038	0	0	-0.466315	-0.019634	-0.100257	0.20204	-0.520524	1.2432	0.765139	0.324833	0	0	-0.364774	-0.392757	0.0307033	0.974341	1.46091	0	0
0.12	3.03901	1.28874	-1.46149	0.592524	-0.252575	0.946542	-0.475606	-0.00279271	-0.470154	0.356715	0.0166788	0	0	0.193735	-0.155861	-0.475657	0.491971	-0.151417	0	0	-0.457629	-0.0184657	-0.103144	0.201578	-0.520598	1.24608	0.763732	0.324404	0	0	-0.367844	-0.389107	0.0264958	0.970622	1.46387	0	0
0.13	3.02978	1.29406	-1.45203	0.591241	-0.241628	0.944466	-0.475668	-0.00518171	-0.473853	0.37607	0.0252659	0	0	0.185149	-0.141242	-0.466536	0.44271	-0.143385	0	0	-0.451679	-0.0171146	-0.103442	0.200833	-0.519568	1.24782	0.760274	0.324213	0	0	-0.369289	-0.386034	0.0234356	0.965937	1.46774	0	0
0.14	3.00877	1.29777	-1.43287	0.590672	-0.230662	0.942986	-0.497221	0.000551818	-0.470249	0.338834	0.00961289	0	0	0.173438	-0.132319	-0.456349	0.395618	-0.137204	0	0	-0.44691	-0.0144103	-0.100445	0.199959	-0.514927	1.24911	0.751656	0.323948	0	0	-0.36929	-0.383768	0.0204508	0.959274	1.47332	0	0
0.15	3.00546	1.30075	-1.43107	0.589707	-0.219209	0.941364	-0.498245	-0.00335983	-0.470119	0.353292	0.00433471	0	0	0.158128	-0.11864	-0.448364	0.350369	-0.134725	0	0	-0.442785	-0.0159378	-0.0999937	0.198091	-0.512738	1.24923	0.74741	0.323372	0	0	-0.371394	-0.381689	0.0163971	0.955345	1.47368	0	0
0.16	2.98994	1.30532	-1.41879	0.589469	-0.207649	0.939841	-0.513685	-0.00129138	-0.455505	0.325689	-0.0145044	0	0	0.145163	-0.111649	-0.438549	0.312252	-0.137763	0	0	-0.436101	-0.0163685	-0.0970217	0.196043	-0.507059	1.25056	0.738308	0.32349	0	0	-0.373294	-0.381011	0.0129172	0.95046	1.47322	0	0
0.17	3.00967	1.32133	-1.44259	0.586946	-0.195951	0.936981	-0.495631	0.00724422	-0.306217	0.348695	0.019226	0	0	0.143795	-0.0895772	-0.432394	0.280959	-0.148182	0	0	-0.418616	-0.02464	-0.0969008	0.193337	-0.507861	1.25242	0.733538	0.324024	0	0	-0.37474	-0.37475	0.00857134	0.942708	1.47741	0	0
0.18	2.99833	1.32472	-1.43411	0.586121	-0.183747	0.935376	-0.494972	0.00394227	-0.303467	0.368161	0.0193482	0	0	0.132702	-0.086409	-0.433354	0.271111	-0.153912	0	0	-0.412237	-0.0255632	-0.0946984	0.189731	-0.506314	1.25329	0.729798	0.32425	0	0	-0.379276	-0.374009	0.00488754	0.940446	1.48148	0	0
0.19	2.9767	1.32505	-1.41481	0.585539	-0.17122	0.93422	-0.514904	0.00596884	-0.278898	0.343723	0.00102099	0	0	0.120589	-0.0894635	-0.438483	0.276436	-0.157626	0	0	-0.408341	-0.0239397	-0.0927512	0.186401	-0.503865	1.25539	0.725014	0.324898	0	0	-0.384711	-0.373148	-0.000812325	0.938969	1.48412	0	0
0.2	2.96779	1.32573	-1.40718	0.584183	-0.15836	0.932893	-0.516675	0.00162796	-0.277832	0.363909	-0.0109236	0	0	0.109576	-0.0887481	-0.447764	0.290492	-0.154899	0	0	-0.40441	-0.024093	-0.0928563	0.182682	-0.504963	1.25747	0.724306	0.325694	0	0	-0.390876	-0.371253	-0.00676212	0.938604	1.48503	0	0
0.21	2.9634	1.32692	-1.40254	0.582462	-0.145193	0.931758	-0.517705	-0.00357862	-0.276341	0.384678	-0.0228299	0	0	0.0992735	-0.0858852	-0.455663	0.302866	-0.151609	0	0	-0.399729	-0.0245416	-0.0943309	0.178202	-0.50607	1.25955	0.722478	0.326779	0	0	-0.396031	-0.369547	-0.0115506	0.936465	1.48742	0	0
0.22	2.96548	1.32888	-1.40294	0.580552	-0.131961	0.930808	-0.514764	-0.0115487	-0.278038	0.412618	-0.0362762	0	0	0.090299	-0.0798775	-0.457414	0.305525	-0.159621	0	0	-0.394586	-0.0261608	-0.0972868	0.173511	-0.506814	1.26188	0.719926	0.328677	0	0	-0.400264	-0.368696	-0.0151413	0.93343	1.49052	0	0
0.23	2.97449	1.33231	-1.40899	0.578462	-0.118869	0.930147	-0.509773	-0.0205315	-0.276274	0.439932	-0.0539441	0	0	0.0844459	-0.0719177	-0.452485	0.301002	-0.185376	0	0	-0.388688	-0.0293094	-0.101899	0.169377	-0.505983	1.26496	0.714868	0.331457	0	0	-0.402553	-0.368217	-0.0179682	0.928419	1.48964	0	0
0.24	2.99251	1.33574	-1.42236	0.576219	-0.105795	0.929909	-0.505573	-0.0302934	-0.270979	0.466943	-0.0729475	0	0	0.0802826	-0.0640383	-0.446162	0.299124	-0.21513	0	0	-0.383299	-0.0341576	-0.10816	0.164865	-0.504172	1.26722	0.708766	0.334042	0	0	-0.403292	-0.368902	-0.0187803	0.922087	1.48615	0	0
0.25	3.01529	1.33726	-1.43872	0.573847	-0.0927194	0.930261	-0.501946	-0.0402638	-0.265264	0.495535	-0.09472	0	0	0.0770569	-0.0584658	-0.441873	0.308769	-0.233717	0	0	-0.380232	-0.039225	-0.115567	0.159674	-0.502429	1.26718	0.70335	0.335357	0	0	-0.402739	-0.370893	-0.017428	0.915142	1.48546	0	0
0.26	3.04022	1.33635	-1.45556	0.571347	-0.0796147	0.931122	-0.498509	-0.0505765	-0.2617	0.527351	-0.123079	0	0	0.0751326	-0.0556577	-0.440322	0.332901	-0.242696	0	0	-0.379608	-0.0438526	-0.124	0.15386	-0.501228	1.26518	0.69933	0.335404	0	0	-0.402174	-0.37491	-0.0136634	0.909393	1.4909	0	0
0.27	3.06241	1.33369	-1.46888	0.568783	-0.066631	0.932371	-0.492475	-0.0617308	-0.261522	0.56644	-0.160608	0	0	0.0739151	-0.0554689	-0.440358	0.367115	-0.24522	0	0	-0.381091	-0.0469988	-0.132316	0.148049	-0.501509	1.26274	0.697941	0.335153	0	0	-0.400733	-0.379844	-0.00879982	0.905194	1.49792	0	0
0.28	3.08508	1.32969	-1.48171	0.566069	-0.0537847	0.933872	-0.483724	-0.0739716	-0.262958	0.610667	-0.2028	0	0	0.0693646	-0.0542292	-0.438693	0.398493	-0.245955	0	0	-0.38424	-0.0491119	-0.141457	0.142503	-0.503664	1.26016	0.699647	0.334138	0	0	-0.398128	-0.385387	-0.00280693	0.902182	1.5013	0	0
0.29	3.07939	1.30475	-1.46137	0.56309	-0.0411358	0.937939	-0.511648	-0.0951785	-0.396305	0.608767	-0.330817	0	0	0.036347	-0.0620056	-0.437268	0.415829	-0.252128	0	0	-0.409904	-0.0389989	-0.15172	0.139571	-0.509987	1.25729	0.707227	0.331094	0	0	-0.390758	-0.394385	0.0111055	0.901049	1.49567	0	0
0.3	3.11884	1.3195	-1.49442	0.559958	-0.0292008	0.937486	-0.456596	-0.0916123	-0.247553	0.702833	-0.320155	0	0	0.045652	-0.0469953	-0.429372	0.428767	-0.252632	0	0	-0.393694	-0.046327	-0.157631	0.132023	-0.514909	1.25299	0.710597	0.329159	0	0	-0.38298	-0.401708	0.0260443	0.895749	1.49381	0	0
0.31	3.13091	1.31951	-1.49772	0.556981	-0.0174785	0.938904	-0.432511	-0.0985232	-0.231499	0.75481	-0.352155	0	0	0.0347534	-0.0417462	-0.425898	0.432053	-0.254398	0	0	-0.392913	-0.0444253	-0.164576	0.128089	-0.518942	1.25082	0.712592	0.328839	0	0	-0.374803	-0.408776	0.0385749	0.89329	1.49835	0	0
0.32	3.14109	1.31966	-1.50022	0.55427	-0.00601197	0.940245	-0.403833	-0.106424	-0.22023	0.812058	-0.381417	0	0	0.0218249	-0.0370952	-0.42681	0.431202	-0.254004	0	0	-0.392082	-0.042592	-0.170872	0.124695	-0.523289	1.24829	0.715963	0.329737	0	0	-0.366716	-0.416659	0.050905	0.892983	1.50408	0	0
0.33	-3.12087	1.3149	-1.51144	0.552201	0.00596102	0.941251	-0.387863	-0.150027	-0.291283	0.869521	-0.421026	0	0	0.00153865	-0.0326547	-0.434085	0.430785	-0.249962	0	0	-0.39487	-0.0441021	-0.181829	0.119621	-0.529653	1.24263	0.727808	0.33058	0	0	-0.366555	-0.42805	0.0574019	0.903319	1.50521	0	0
0.34	-3.12037	1.31379	-1.50691	0.54981	0.0165046	0.942672	-0.357787	-0.158551	-0.28647	0.926114	-0.438388	0	0	-0.0137547	-0.0311599	-0.438568	0.427227	-0.247231	0	0	-0.396666	-0.0402653	-0.188056	0.120056	-0.53502	1.23884	0.733407	0.33244	0	0	-0.358519	-0.433557	0.0622017	0.906724	1.50478	0	0
0.35	-3.12617	1.3209	-1.50047	0.547227	0.0263319	0.943607	-0.302455	-0.126085	-0.18999	1.0002	-0.409001	0	0	-0.0188156	-0.028566	-0.438546	0.423447	-0.242689	0	0	-0.390634	-0.0353444	-0.189463	0.120543	-0.541144	1.2321	0.736981	0.337269	0	0	-0.344974	-0.434452	0.0665317	0.904031	1.50576	0	0
0.36	-3.12726	1.32256	-1.49632	0.545081	0.0369156	0.944356	-0.263432	-0.128989	-0.1728	1.07132	-0.374342	0	0	-0.0310156	-0.0276075	-0.440063	0.420877	-0.236356	0	0	-0.38844	-0.0320881	-0.19585	0.121083	-0.549058	1.22714	0.747221	0.342275	0	0	-0.340833	-0.437154	0.0629957	0.911784	1.50599	0	0
0.37	-3.1358	1.32428	-1.48517	0.543027	0.047209	0.945278	-0.225468	-0.13279	-0.163817	1.13848	-0.31996	0	0	-0.042752	-0.0285779	-0.439265	0.41737	-0.230242	0	0	-0.386565	-0.0270885	-0.201843	0.123334	-0.556171	1.22327	0.755546	0.347761	0	0	-0.335859	-0.438382	0.0568193	0.919405	1.50687	0	0
0.38	3.13249	1.32748	-1.46893	0.541233	0.0570218	0.946441	-0.187146	-0.135163	-0.157358	1.19818	-0.263857	0	0	-0.0524018	-0.0306184	-0.435864	0.412	-0.22641	0	0	-0.383663	-0.0212721	-0.206152	0.127972	-0.560359	1.22254	0.758409	0.351844	0	0	-0.327807	-0.43891	0.0506605	0.924371	1.50846	0	0
0.39	3.11526	1.33098	-1.45121	0.539665	0.0665251	0.947906	-0.148674	-0.136866	-0.15202	1.25204	-0.21405	0	0	-0.0621545	-0.0326755	-0.430808	0.404456	-0.224221	0	0	-0.380636	-0.0155188	-0.209043	0.134408	-0.561912	1.22505	0.756562	0.354011	0	0	-0.316967	-0.43942	0.0456586	0.927033	1.51159	0	0
